<svg width="260" height="59" viewBox="0 0 260 59" fill="none" xmlns="http://www.w3.org/2000/svg">
<path d="M14.6467 2.42493C17.1541 2.42493 19.2821 2.60639 21.0307 2.96931C22.8123 3.33222 24.2805 4.10754 25.4352 5.29526C26.6229 6.44999 27.2168 8.18209 27.2168 10.4916C27.2168 12.735 26.6889 14.863 25.6331 16.8756C24.5774 18.8551 22.5649 21.0656 19.5956 23.507L11.331 30.4849V32.6129C11.331 33.7676 11.496 34.7244 11.8259 35.4832C12.1558 36.242 12.4692 36.7699 12.7662 37.0668H2.17565C2.47258 36.8029 2.78601 36.2915 3.11593 35.5327C3.44586 34.7739 3.61082 33.8006 3.61082 32.6129V6.87889C3.61082 5.69117 3.44586 4.7179 3.11593 3.95907C2.78601 3.20025 2.47258 2.68887 2.17565 2.42493H14.6467ZM11.331 22.9626L15.1911 19.7954C16.9067 18.4097 18.0779 17.1395 18.7048 15.9848C19.3316 14.797 19.645 13.6588 19.645 12.5701C19.645 11.0524 19.1997 10.0626 18.3089 9.60076C17.4181 9.13887 16.2798 8.90792 14.8942 8.90792H11.331V22.9626Z" fill="url(#paint0_linear_497_6951)"/>
<path d="M52.643 32.6129C52.643 33.8006 52.8079 34.7739 53.1379 35.5327C53.4678 36.2915 53.7812 36.8029 54.0781 37.0668H47.2982L47.1992 34.4934C45.3517 36.539 42.7123 37.5617 39.2811 37.5617C35.652 37.5617 32.9631 36.3905 31.2145 34.048C29.4659 31.6726 28.5916 28.5218 28.5916 24.5958C28.5916 20.1418 29.5979 16.8756 31.6104 14.797C33.6559 12.7185 36.2458 11.6793 39.3801 11.6793C42.5473 11.6793 45.0548 12.702 46.9023 14.7476L46.9518 12.3226H54.0781C53.7812 12.5866 53.4678 13.0979 53.1379 13.8568C52.8079 14.6156 52.643 15.5889 52.643 16.7766V32.6129ZM40.5678 31.3757C42.1844 31.3757 43.3557 30.8973 44.0815 29.9405C44.8403 28.9837 45.2197 27.4166 45.2197 25.2391V24.3978C45.2197 20.0428 43.6856 17.8653 40.6173 17.8653C39.0997 17.8653 37.9284 18.4427 37.1036 19.5974C36.2788 20.7522 35.8664 22.4183 35.8664 24.5958C35.8664 26.7732 36.2293 28.4559 36.9552 29.6436C37.681 30.7983 38.8852 31.3757 40.5678 31.3757Z" fill="url(#paint1_linear_497_6951)"/>
<path d="M67.4543 25.9319C67.4873 27.4496 67.7842 28.6208 68.3451 29.4456C68.939 30.2374 69.7143 30.6333 70.6711 30.6333C71.1989 30.6333 71.8258 30.4684 72.5516 30.1385L71.2154 37.0668H69.7308C66.4645 37.0668 64.0396 36.209 62.456 34.4934C60.8723 32.7778 60.064 30.5344 60.031 27.763V17.6179H56.2699L57.0617 12.3226H60.031V7.62122C60.031 6.46649 59.8661 5.50971 59.5362 4.75089C59.2062 3.99207 58.8928 3.46419 58.5959 3.16726H68.8895C68.5925 3.46419 68.2791 3.99207 67.9492 4.75089C67.6193 5.50971 67.4543 6.46649 67.4543 7.62122V12.3226H68.4441C69.4008 12.3226 70.6711 12.2401 72.2547 12.0752L71.4629 18.1128C70.869 17.8818 69.5328 17.7334 67.4543 17.6674V25.9319Z" fill="url(#paint2_linear_497_6951)"/>
<path d="M100.122 32.6129C100.122 33.8006 100.287 34.7739 100.617 35.5327C100.947 36.2915 101.261 36.8029 101.558 37.0668H91.2641C91.561 36.7699 91.8744 36.242 92.2043 35.4832C92.5343 34.7244 92.6992 33.7676 92.6992 32.6129V25.0412C92.6992 22.3028 92.3858 20.3398 91.7589 19.152C91.1321 17.9643 90.0928 17.3704 88.6412 17.3704C87.3215 17.3704 86.2327 17.9313 85.375 19.053C84.5501 20.1418 84.1377 21.5605 84.1377 23.3091V32.6129C84.1377 33.7676 84.3027 34.7244 84.6326 35.4832C84.9625 36.242 85.276 36.7699 85.5729 37.0668H75.2793C75.5763 36.8029 75.8897 36.2915 76.2196 35.5327C76.5495 34.7739 76.7145 33.8006 76.7145 32.6129V7.67071C76.7145 6.48298 76.5495 5.50971 76.2196 4.75089C75.8897 3.99207 75.5763 3.48069 75.2793 3.21675H85.5729C85.276 3.51368 84.9625 4.04156 84.6326 4.80038C84.3027 5.5592 84.1377 6.51598 84.1377 7.67071V15.193C84.8636 14.1702 85.8368 13.3619 87.0576 12.768C88.3113 12.1412 89.7629 11.8277 91.4125 11.8277C94.1509 11.8277 96.2789 12.6855 97.7965 14.4011C99.3472 16.1167 100.122 18.5912 100.122 21.8244V32.6129Z" fill="url(#paint3_linear_497_6951)"/>
<path d="M114.894 12.3226C115.883 12.3226 117.154 12.2401 118.704 12.0752L117.912 18.0138C117.319 17.7499 115.867 17.6014 113.557 17.5684V32.6129C113.557 33.8006 113.722 34.7739 114.052 35.5327C114.382 36.2915 114.696 36.8029 114.993 37.0668H104.699C104.996 36.7699 105.309 36.242 105.639 35.4832C105.969 34.7244 106.134 33.7676 106.134 32.6129V17.5189H102.472L103.264 12.3226H106.134V11.6793C106.134 7.88516 107.107 4.99833 109.054 3.01879C111 1.00626 113.689 0 117.121 0C119.397 0 121.657 0.362915 123.9 1.08874C126.144 1.78158 128.47 2.93631 130.878 4.55294L126.325 9.0069C125.105 7.95114 123.818 7.14283 122.465 6.58196C121.113 5.9881 119.826 5.69117 118.605 5.69117C116.89 5.69117 115.619 6.23554 114.795 7.32429C114.003 8.41303 113.59 10.0791 113.557 12.3226H114.894ZM129.938 32.6129C129.938 33.7676 130.103 34.7244 130.433 35.4832C130.763 36.242 131.076 36.7699 131.373 37.0668H121.08C121.377 36.8029 121.69 36.2915 122.02 35.5327C122.35 34.7739 122.515 33.8006 122.515 32.6129V16.7766C122.515 15.5889 122.35 14.6156 122.02 13.8568C121.69 13.0979 121.377 12.5866 121.08 12.3226H131.373C131.076 12.6196 130.763 13.1474 130.433 13.9063C130.103 14.6651 129.938 15.6219 129.938 16.7766V32.6129Z" fill="url(#paint4_linear_497_6951)"/>
<path d="M159.082 32.6129C159.082 33.7676 159.247 34.7244 159.577 35.4832C159.907 36.242 160.22 36.7699 160.517 37.0668H150.224C150.521 36.7699 150.834 36.242 151.164 35.4832C151.494 34.7244 151.659 33.7676 151.659 32.6129V25.0412C151.659 22.3028 151.345 20.3398 150.719 19.152C150.092 17.9643 149.052 17.3704 147.601 17.3704C146.281 17.3704 145.209 17.9313 144.384 19.053C143.559 20.1418 143.147 21.5605 143.147 23.3091V32.6129C143.147 33.7676 143.312 34.7244 143.642 35.4832C143.972 36.242 144.285 36.7699 144.582 37.0668H134.288C134.585 36.8029 134.899 36.2915 135.229 35.5327C135.559 34.7739 135.724 33.8006 135.724 32.6129V16.7766C135.724 15.5889 135.559 14.6156 135.229 13.8568C134.899 13.0979 134.585 12.5866 134.288 12.3226H143.048L143.147 15.0445V15.1435C143.873 14.1207 144.846 13.3124 146.067 12.7185C147.32 12.1247 148.755 11.8277 150.372 11.8277C153.11 11.8277 155.238 12.6855 156.756 14.4011C158.307 16.1167 159.082 18.5912 159.082 21.8244V32.6129Z" fill="url(#paint5_linear_497_6951)"/>
<path d="M187.141 32.6129C187.141 33.8006 187.306 34.7739 187.636 35.5327C187.966 36.2915 188.279 36.8029 188.576 37.0668H180.856L180.609 34.4934C178.794 36.539 176.32 37.5617 173.185 37.5617C171.107 37.5617 169.292 37.0009 167.742 35.8791C166.224 34.7574 165.069 33.2232 164.278 31.2767C163.486 29.3302 163.09 27.1197 163.09 24.6452C163.09 20.1913 164.047 16.925 165.96 14.8465C167.874 12.768 170.299 11.7288 173.235 11.7288C175.841 11.7288 178.002 12.5371 179.718 14.1537V7.67071C179.718 6.51598 179.553 5.5592 179.223 4.80038C178.893 4.04156 178.58 3.51368 178.283 3.21675H188.576C188.279 3.48069 187.966 3.99207 187.636 4.75089C187.306 5.50971 187.141 6.48298 187.141 7.67071V32.6129ZM175.066 31.3757C176.452 31.3757 177.573 30.9468 178.431 30.089C179.289 29.2312 179.718 27.631 179.718 25.2886V24.4473C179.718 20.1253 178.2 17.9643 175.165 17.9643C173.647 17.9643 172.46 18.5417 171.602 19.6964C170.777 20.8181 170.365 22.4678 170.365 24.6452C170.365 26.7238 170.761 28.3734 171.552 29.5941C172.344 30.7818 173.515 31.3757 175.066 31.3757Z" fill="url(#paint6_linear_497_6951)"/>
<path d="M215.809 24.8927H198.637C198.736 27.2351 199.297 29.0167 200.319 30.2374C201.375 31.4582 202.761 32.0685 204.476 32.0685C205.4 32.0685 206.258 31.8211 207.05 31.3262C207.875 30.7983 208.452 29.99 208.782 28.9013L215.364 31.4746L213.929 32.8603C213.005 33.8171 212.164 34.6089 211.405 35.2358C210.646 35.8626 209.673 36.407 208.485 36.8689C207.297 37.3308 205.895 37.5617 204.278 37.5617C201.672 37.5617 199.396 37.0174 197.449 35.9286C195.503 34.8399 194.001 33.3057 192.946 31.3262C191.89 29.3466 191.362 27.0702 191.362 24.4968C191.362 20.5377 192.484 17.4364 194.727 15.193C196.971 12.9495 200.055 11.8277 203.982 11.8277C206.357 11.8277 208.435 12.3391 210.217 13.3619C212.032 14.3846 213.417 15.7703 214.374 17.5189C215.331 19.2675 215.809 21.1811 215.809 23.2596V24.8927ZM208.831 21.8739C208.666 20.4222 208.139 19.3005 207.248 18.5087C206.357 17.7169 205.268 17.321 203.982 17.321C201.144 17.321 199.429 18.8386 198.835 21.8739H208.831Z" fill="url(#paint7_linear_497_6951)"/>
<path d="M234.164 12.3226L233.422 20.3892C233.356 20.3233 233.241 20.1913 233.076 19.9933C232.944 19.7954 232.746 19.6304 232.482 19.4984C232.218 19.3665 231.871 19.3005 231.443 19.3005C230.156 19.3005 229.15 19.8284 228.424 20.8841C227.698 21.9399 227.335 23.1276 227.335 24.4473V32.6129C227.335 33.7676 227.5 34.7244 227.83 35.4832C228.16 36.242 228.473 36.7699 228.77 37.0668H218.477C218.774 36.8029 219.087 36.2915 219.417 35.5327C219.747 34.7739 219.912 33.8006 219.912 32.6129V16.7766C219.912 15.5889 219.747 14.6156 219.417 13.8568C219.087 13.0979 218.774 12.5866 218.477 12.3226H227.681L227.385 14.797C228.143 14.0052 229.034 13.3949 230.057 12.966C231.113 12.5041 232.218 12.2731 233.373 12.2731L234.164 12.3226Z" fill="url(#paint8_linear_497_6951)"/>
<path d="M244.678 37.5122C242.534 37.5122 240.636 37.0833 238.987 36.2255C237.37 35.3347 236.084 34.1965 235.127 32.8108L238.195 29.0497C238.228 29.9735 238.525 30.6828 239.086 31.1777C239.647 31.6396 240.356 31.8871 241.214 31.92C243.16 31.92 244.134 31.0787 244.134 29.3961C244.134 28.5053 243.771 27.664 243.045 26.8722C242.319 26.0474 241.346 25.1731 240.125 24.2493C238.904 23.2926 237.997 22.3853 237.403 21.5275C236.809 20.6367 236.512 19.5149 236.512 18.1623C236.512 16.2817 237.189 14.7641 238.541 13.6093C239.927 12.4216 241.709 11.8277 243.886 11.8277C245.239 11.8277 246.394 11.9927 247.35 12.3226C248.307 12.6196 249.28 13.032 250.27 13.5598C251.062 13.9887 251.623 14.2362 251.953 14.3022L249.627 19.0036C249.231 17.8158 248.406 17.222 247.152 17.222C246.493 17.222 245.932 17.4199 245.47 17.8158C245.041 18.2117 244.826 18.7561 244.826 19.449C244.826 20.1418 245.074 20.7687 245.569 21.3295C246.064 21.8574 246.921 22.5832 248.142 23.507C249.594 24.6947 250.716 25.8165 251.507 26.8722C252.332 27.928 252.745 29.2477 252.745 30.8313C252.745 32.8768 251.986 34.5099 250.468 35.7307C248.983 36.9184 247.053 37.5122 244.678 37.5122Z" fill="url(#paint9_linear_497_6951)"/>
<path d="M140.452 53.5031C140.476 53.4081 140.488 53.2854 140.488 53.1349C140.488 52.8974 140.46 52.6955 140.405 52.5292L140.084 51.4484C139.656 51.5988 139.209 51.674 138.742 51.674C138.298 51.674 137.863 51.6107 137.435 51.484L137.103 52.5648C137.047 52.739 137.02 52.937 137.02 53.1587C137.02 53.3012 137.032 53.416 137.055 53.5031H134.573C134.739 53.3527 134.874 53.1864 134.977 53.0043C135.088 52.8142 135.199 52.5727 135.309 52.2798L137.388 46.1274C137.435 45.969 137.459 45.8225 137.459 45.6879C137.459 45.4741 137.42 45.3078 137.34 45.1891H140.322C140.242 45.3078 140.203 45.4781 140.203 45.6998C140.203 45.8661 140.223 46.0125 140.262 46.1392L142.222 52.256C142.325 52.5648 142.428 52.8103 142.531 52.9924C142.642 53.1745 142.784 53.3448 142.958 53.5031H140.452ZM138.813 47.0419L137.78 50.3794C138.089 50.4665 138.417 50.5101 138.766 50.5101C139.122 50.5101 139.458 50.4586 139.775 50.3557L138.813 47.0419Z" fill="url(#paint10_linear_497_6951)"/>
<path d="M150.019 52.4342C150.019 52.7192 150.059 52.9528 150.138 53.1349C150.217 53.317 150.292 53.4398 150.364 53.5031H147.822C147.893 53.4398 147.968 53.317 148.048 53.1349C148.127 52.9528 148.166 52.7192 148.166 52.4342V51.1039C148.127 50.6526 147.988 50.2884 147.751 50.0112C147.521 49.7262 147.196 49.4371 146.777 49.1442C146.5 48.9541 146.278 48.7879 146.112 48.6453C145.945 48.5028 145.815 48.3484 145.72 48.1821V52.4342C145.72 52.7113 145.759 52.9409 145.838 53.123C145.918 53.3052 145.993 53.4319 146.064 53.5031H143.534C143.606 53.4398 143.681 53.317 143.76 53.1349C143.839 52.9528 143.879 52.7192 143.879 52.4342V46.258C143.879 45.973 143.839 45.7394 143.76 45.5573C143.681 45.3751 143.606 45.2524 143.534 45.1891H146.064C145.993 45.2603 145.918 45.383 145.838 45.5573C145.767 45.7314 145.728 45.9532 145.72 46.2224C145.759 46.4678 145.87 46.6856 146.052 46.8756C146.242 47.0577 146.523 47.2755 146.895 47.5289L147.097 47.6714C147.359 47.8535 147.576 48.0356 147.751 48.2178C147.933 48.392 148.071 48.5939 148.166 48.8235V46.258C148.166 45.973 148.127 45.7394 148.048 45.5573C147.968 45.3751 147.893 45.2524 147.822 45.1891H150.364C150.292 45.2524 150.217 45.3751 150.138 45.5573C150.059 45.7394 150.019 45.973 150.019 46.258V52.4342Z" fill="url(#paint11_linear_497_6951)"/>
<path d="M151.41 53.5031C151.481 53.4398 151.556 53.317 151.636 53.1349C151.715 52.9528 151.754 52.7192 151.754 52.4342V46.258C151.754 45.973 151.715 45.7394 151.636 45.5573C151.556 45.3751 151.481 45.2524 151.41 45.1891H153.655C155.12 45.1891 156.24 45.5493 157.016 46.2699C157.792 46.9825 158.18 48.0158 158.18 49.3698C158.18 50.7159 157.792 51.7413 157.016 52.446C156.248 53.1508 155.127 53.5031 153.655 53.5031H151.41ZM153.607 51.7453H154.154C154.906 51.7453 155.444 51.5394 155.769 51.1277C156.093 50.708 156.256 50.1181 156.256 49.358C156.256 48.5978 156.093 48.0079 155.769 47.5883C155.444 47.1607 154.906 46.9469 154.154 46.9469H153.607V51.7453Z" fill="url(#paint12_linear_497_6951)"/>
<path d="M165.159 46.745V52.5411C165.167 52.7628 165.207 52.9607 165.278 53.1349C165.349 53.3091 165.425 53.4319 165.504 53.5031H162.974C163.061 53.4319 163.14 53.3131 163.211 53.1468C163.283 52.9726 163.318 52.7707 163.318 52.5411V46.745H162.618C162.317 46.745 162.02 46.7727 161.727 46.8281C161.442 46.8835 161.208 46.9429 161.026 47.0063L161.608 45.1891H166.87L167.452 47.0063C167.277 46.9429 167.044 46.8835 166.751 46.8281C166.458 46.7727 166.161 46.745 165.86 46.745H165.159Z" fill="url(#paint13_linear_497_6951)"/>
<path d="M174.768 52.4342C174.768 52.7192 174.808 52.9528 174.887 53.1349C174.966 53.317 175.042 53.4398 175.113 53.5031H172.559C172.631 53.4398 172.706 53.317 172.785 53.1349C172.864 52.9528 172.904 52.7192 172.904 52.4342V50.1419C172.508 50.229 172.068 50.2725 171.585 50.2725C171.11 50.2725 170.615 50.221 170.101 50.1181V52.4342C170.101 52.7113 170.14 52.9409 170.219 53.123C170.299 53.3052 170.374 53.4319 170.445 53.5031H167.903C167.975 53.4398 168.05 53.317 168.129 53.1349C168.208 52.9528 168.248 52.7192 168.248 52.4342V46.2461C168.248 45.9611 168.208 45.7275 168.129 45.5454C168.05 45.3633 167.975 45.2405 167.903 45.1772H170.445C170.374 45.2484 170.299 45.3751 170.219 45.5573C170.14 45.7394 170.101 45.969 170.101 46.2461V48.6216C170.615 48.7403 171.118 48.7997 171.609 48.7997C172.06 48.7997 172.492 48.7522 172.904 48.6572V46.2461C172.904 45.9611 172.864 45.7275 172.785 45.5454C172.706 45.3633 172.631 45.2405 172.559 45.1772H175.113C175.042 45.2405 174.966 45.3633 174.887 45.5454C174.808 45.7275 174.768 45.9611 174.768 46.2461V52.4342Z" fill="url(#paint14_linear_497_6951)"/>
<path d="M178.347 52.0422H180.616C180.909 52.0422 181.198 52.0145 181.483 51.9591C181.768 51.9037 182.001 51.8443 182.184 51.7809L181.72 53.5031H176.162C176.233 53.4398 176.308 53.317 176.387 53.1349C176.467 52.9528 176.506 52.7192 176.506 52.4342V46.258C176.506 45.973 176.467 45.7394 176.387 45.5573C176.308 45.3751 176.233 45.2524 176.162 45.1891H181.697L182.148 47.0063C181.974 46.9429 181.744 46.8835 181.459 46.8281C181.174 46.7727 180.885 46.745 180.592 46.745H178.347V48.7997H179.701C180.034 48.7997 180.315 48.7879 180.544 48.7641C180.774 48.7324 180.928 48.7008 181.008 48.6691V50.0706C180.889 50.0468 180.711 50.0231 180.473 49.9993C180.236 49.9756 179.978 49.9637 179.701 49.9637H178.347V52.0422Z" fill="url(#paint15_linear_497_6951)"/>
<path d="M191.914 52.4342C191.914 52.7192 191.954 52.9528 192.033 53.1349C192.112 53.317 192.187 53.4398 192.259 53.5031H189.717C189.788 53.4398 189.863 53.317 189.943 53.1349C190.022 52.9528 190.061 52.7192 190.061 52.4342V51.1039C190.022 50.6526 189.883 50.2884 189.646 50.0112C189.416 49.7262 189.091 49.4371 188.672 49.1442C188.395 48.9541 188.173 48.7879 188.007 48.6453C187.84 48.5028 187.71 48.3484 187.615 48.1821V52.4342C187.615 52.7113 187.654 52.9409 187.733 53.123C187.813 53.3052 187.888 53.4319 187.959 53.5031H185.429C185.501 53.4398 185.576 53.317 185.655 53.1349C185.734 52.9528 185.774 52.7192 185.774 52.4342V46.258C185.774 45.973 185.734 45.7394 185.655 45.5573C185.576 45.3751 185.501 45.2524 185.429 45.1891H187.959C187.888 45.2603 187.813 45.383 187.733 45.5573C187.662 45.7314 187.623 45.9532 187.615 46.2224C187.654 46.4678 187.765 46.6856 187.947 46.8756C188.137 47.0577 188.418 47.2755 188.791 47.5289L188.992 47.6714C189.254 47.8535 189.471 48.0356 189.646 48.2178C189.828 48.392 189.966 48.5939 190.061 48.8235V46.258C190.061 45.973 190.022 45.7394 189.943 45.5573C189.863 45.3751 189.788 45.2524 189.717 45.1891H192.259C192.187 45.2524 192.112 45.3751 192.033 45.5573C191.954 45.7394 191.914 45.973 191.914 46.258V52.4342Z" fill="url(#paint16_linear_497_6951)"/>
<path d="M195.49 52.0422H197.759C198.052 52.0422 198.341 52.0145 198.626 51.9591C198.911 51.9037 199.145 51.8443 199.327 51.7809L198.863 53.5031H193.305C193.376 53.4398 193.451 53.317 193.531 53.1349C193.61 52.9528 193.649 52.7192 193.649 52.4342V46.258C193.649 45.973 193.61 45.7394 193.531 45.5573C193.451 45.3751 193.376 45.2524 193.305 45.1891H198.84L199.291 47.0063C199.117 46.9429 198.887 46.8835 198.602 46.8281C198.317 46.7727 198.028 46.745 197.735 46.745H195.49V48.7997H196.844C197.177 48.7997 197.458 48.7879 197.688 48.7641C197.917 48.7324 198.072 48.7008 198.151 48.6691V50.0706C198.032 50.0468 197.854 50.0231 197.616 49.9993C197.379 49.9756 197.121 49.9637 196.844 49.9637H195.49V52.0422Z" fill="url(#paint17_linear_497_6951)"/>
<path d="M210.549 45.1891C210.374 45.3474 210.232 45.5256 210.121 45.7235C210.018 45.9215 209.935 46.159 209.872 46.4362L208.506 52.5767C208.474 52.6955 208.458 52.8182 208.458 52.9449C208.458 53.1745 208.502 53.3606 208.589 53.5031H206.059C206.138 53.3606 206.178 53.1904 206.178 52.9924C206.178 52.8736 206.162 52.7628 206.13 52.6598L205.275 49.4292C205.172 49.0254 205.105 48.5107 205.073 47.8852C205.042 48.5028 204.974 49.0135 204.871 49.4174L204.004 52.6836C203.98 52.7865 203.969 52.8855 203.969 52.9805C203.969 53.1864 204.008 53.3606 204.087 53.5031H201.558C201.637 53.3685 201.676 53.1864 201.676 52.9568C201.676 52.8222 201.66 52.6915 201.629 52.5648L200.275 46.4362C200.164 45.9057 199.938 45.4899 199.598 45.1891H201.961C201.938 45.3078 201.926 45.4741 201.926 45.6879C201.926 45.8542 201.938 46.0086 201.961 46.1511L202.888 49.8568C202.935 50.1577 203.022 50.5892 203.149 51.1514C203.189 50.7159 203.264 50.2448 203.375 49.738L204.242 46.2699C204.273 46.1432 204.289 46.0046 204.289 45.8542C204.289 45.585 204.23 45.3633 204.111 45.1891H206.035C205.924 45.387 205.869 45.6206 205.869 45.8898C205.869 46.0165 205.881 46.1511 205.905 46.2936L206.819 49.8687C206.906 50.2171 206.97 50.609 207.009 51.0445L207.08 50.712C207.16 50.4032 207.227 50.0904 207.282 49.7737L208.185 46.1511C208.209 46.0561 208.221 45.9096 208.221 45.7117C208.221 45.482 208.209 45.3078 208.185 45.1891H210.549Z" fill="url(#paint18_linear_497_6951)"/>
<path d="M224.467 45.1891C224.293 45.3474 224.15 45.5256 224.04 45.7235C223.937 45.9215 223.853 46.159 223.79 46.4362L222.424 52.5767C222.393 52.6955 222.377 52.8182 222.377 52.9449C222.377 53.1745 222.42 53.3606 222.507 53.5031H219.978C220.057 53.3606 220.096 53.1904 220.096 52.9924C220.096 52.8736 220.08 52.7628 220.049 52.6598L219.194 49.4292C219.091 49.0254 219.023 48.5107 218.992 47.8852C218.96 48.5028 218.893 49.0135 218.79 49.4174L217.923 52.6836C217.899 52.7865 217.887 52.8855 217.887 52.9805C217.887 53.1864 217.927 53.3606 218.006 53.5031H215.476C215.555 53.3685 215.595 53.1864 215.595 52.9568C215.595 52.8222 215.579 52.6915 215.547 52.5648L214.193 46.4362C214.082 45.9057 213.857 45.4899 213.516 45.1891H215.88C215.856 45.3078 215.844 45.4741 215.844 45.6879C215.844 45.8542 215.856 46.0086 215.88 46.1511L216.806 49.8568C216.854 50.1577 216.941 50.5892 217.068 51.1514C217.107 50.7159 217.182 50.2448 217.293 49.738L218.16 46.2699C218.192 46.1432 218.208 46.0046 218.208 45.8542C218.208 45.585 218.148 45.3633 218.03 45.1891H219.954C219.843 45.387 219.788 45.6206 219.788 45.8898C219.788 46.0165 219.799 46.1511 219.823 46.2936L220.738 49.8687C220.825 50.2171 220.888 50.609 220.928 51.0445L220.999 50.712C221.078 50.4032 221.145 50.0904 221.201 49.7737L222.104 46.1511C222.127 46.0561 222.139 45.9096 222.139 45.7117C222.139 45.482 222.127 45.3078 222.104 45.1891H224.467Z" fill="url(#paint19_linear_497_6951)"/>
<path d="M228.474 53.6219C227.698 53.6219 226.993 53.4398 226.36 53.0755C225.734 52.7113 225.239 52.2045 224.875 51.5553C224.519 50.898 224.341 50.1617 224.341 49.3461C224.341 48.5305 224.519 47.802 224.875 47.1607C225.239 46.5114 225.734 46.0086 226.36 45.6523C226.985 45.288 227.69 45.1059 228.474 45.1059C229.258 45.1059 229.963 45.288 230.588 45.6523C231.214 46.0086 231.705 46.5114 232.061 47.1607C232.425 47.802 232.607 48.5305 232.607 49.3461C232.607 50.1617 232.425 50.898 232.061 51.5553C231.705 52.2045 231.21 52.7113 230.576 53.0755C229.951 53.4398 229.25 53.6219 228.474 53.6219ZM228.474 51.7453C228.925 51.7453 229.325 51.6424 229.674 51.4365C230.022 51.2306 230.291 50.9456 230.481 50.5813C230.679 50.2092 230.778 49.7935 230.778 49.3342C230.778 48.8829 230.679 48.479 230.481 48.1227C230.291 47.7585 230.022 47.4734 229.674 47.2676C229.325 47.0617 228.925 46.9588 228.474 46.9588C227.991 46.9588 227.575 47.0696 227.227 47.2913C226.878 47.5051 226.613 47.7941 226.431 48.1584C226.257 48.5226 226.17 48.9146 226.17 49.3342C226.17 49.7618 226.257 50.1617 226.431 50.5338C226.613 50.898 226.878 51.191 227.227 51.4127C227.575 51.6344 227.991 51.7453 228.474 51.7453Z" fill="url(#paint20_linear_497_6951)"/>
<path d="M238.832 51.7334C239.046 51.9551 239.236 52.066 239.402 52.066C239.474 52.066 239.561 52.0462 239.664 52.0066L239.343 53.5388C239.216 53.5546 239.117 53.5625 239.046 53.5625C238.523 53.5625 238.096 53.4081 237.763 53.0993C237.447 52.8142 237.126 52.3194 236.801 51.6146L236.611 51.1871L235.507 52.1372V52.4342C235.507 52.7113 235.546 52.9409 235.625 53.123C235.705 53.3052 235.78 53.4319 235.851 53.5031H233.309C233.381 53.4398 233.456 53.317 233.535 53.1349C233.614 52.9528 233.654 52.7192 233.654 52.4342V46.258C233.654 45.973 233.614 45.7394 233.535 45.5573C233.456 45.3751 233.381 45.2524 233.309 45.1891H236.302C236.904 45.1891 237.415 45.2326 237.835 45.3197C238.262 45.4068 238.614 45.5929 238.892 45.8779C239.177 46.1551 239.319 46.5708 239.319 47.125C239.319 47.616 239.208 48.1029 238.987 48.5859C238.773 49.069 238.393 49.5718 237.846 50.0944C237.957 50.2686 238.108 50.5299 238.298 50.8783C238.322 50.9178 238.389 51.0406 238.5 51.2464C238.611 51.4444 238.721 51.6067 238.832 51.7334ZM235.507 46.745V50.3319L236.386 49.5836C236.789 49.2352 237.074 48.8908 237.241 48.5503C237.415 48.2019 237.502 47.8931 237.502 47.6239C237.502 47.2597 237.395 47.0221 237.181 46.9113C236.968 46.8004 236.694 46.745 236.362 46.745H235.507Z" fill="url(#paint21_linear_497_6951)"/>
<path d="M242.489 51.8997H243.784C244.077 51.8997 244.37 51.872 244.663 51.8166C244.956 51.7611 245.193 51.7017 245.375 51.6384L244.793 53.5031H240.292C240.363 53.4398 240.438 53.317 240.517 53.1349C240.597 52.9528 240.636 52.7192 240.636 52.4342V46.258C240.636 45.973 240.597 45.7394 240.517 45.5573C240.438 45.3751 240.363 45.2524 240.292 45.1891H242.834C242.762 45.2603 242.687 45.387 242.608 45.5691C242.529 45.7512 242.489 45.9809 242.489 46.258V51.8997Z" fill="url(#paint22_linear_497_6951)"/>
<path d="M245.94 53.5031C246.012 53.4398 246.087 53.317 246.166 53.1349C246.245 52.9528 246.285 52.7192 246.285 52.4342V46.258C246.285 45.973 246.245 45.7394 246.166 45.5573C246.087 45.3751 246.012 45.2524 245.94 45.1891H248.185C249.65 45.1891 250.771 45.5493 251.546 46.2699C252.322 46.9825 252.71 48.0158 252.71 49.3698C252.71 50.7159 252.322 51.7413 251.546 52.446C250.778 53.1508 249.658 53.5031 248.185 53.5031H245.94ZM248.138 51.7453H248.684C249.436 51.7453 249.975 51.5394 250.299 51.1277C250.624 50.708 250.786 50.1181 250.786 49.358C250.786 48.5978 250.624 48.0079 250.299 47.5883C249.975 47.1607 249.436 46.9469 248.684 46.9469H248.138V51.7453Z" fill="url(#paint23_linear_497_6951)"/>
<path d="M9.92935 45.2567C10.5588 45.2567 11.0814 45.7792 11.0814 46.4206C11.0814 47.0501 10.5588 47.5727 9.92935 47.5727C9.28798 47.5727 8.76538 47.0501 8.76538 46.4206C8.76538 45.7792 9.28798 45.2567 9.92935 45.2567ZM9.92935 45.898C9.6443 45.898 9.40675 46.1237 9.40675 46.4206C9.40675 46.7057 9.6443 46.9313 9.92935 46.9313C10.2144 46.9313 10.4401 46.7057 10.4401 46.4206C10.4401 46.1237 10.2144 45.898 9.92935 45.898ZM5.38038 48.5229L5.41601 48.6535C4.45396 50.5539 3.2306 52.1692 1.95974 53.2144C1.88848 53.2738 1.84097 53.2975 1.78158 53.2975C1.7222 53.2975 1.67469 53.2738 1.59155 53.2263L0 52.2642C1.54404 51.1953 2.80302 49.5443 3.61067 47.6915L3.71757 47.6677L5.38038 48.5229ZM6.53247 48.6179L6.55622 48.4873L8.06463 47.6677L8.19528 47.6915C9.29986 48.7248 10.3332 50.0194 11.1171 51.516L11.0933 51.6228L9.33549 52.6799L9.2286 52.6562C8.48033 51.0765 7.58954 49.7225 6.53247 48.6179Z" fill="url(#paint24_linear_497_6951)"/>
<path d="M19.8231 54.3665L19.6924 54.3546C18.9085 53.3213 17.9465 52.3474 17.0557 51.5397C15.8561 52.8343 14.5496 53.7132 12.9818 54.5209C12.863 54.5803 12.7799 54.604 12.7205 54.604C12.6492 54.604 12.6017 54.5684 12.5305 54.5209L11.129 53.4401C13.8607 52.1692 16.248 50.3757 17.3407 47.9053H14.514L12.7443 47.9409L12.6611 47.8459V46.2306L12.768 46.1593L14.5496 46.195H17.9108L19.1223 46.1356L19.8468 46.8482C19.93 46.9313 19.9775 46.9907 19.9775 47.062C19.9775 47.1333 19.9418 47.2164 19.8706 47.347C19.3242 48.4041 18.7779 49.3068 18.2315 50.0907C19.3599 51.029 20.2507 51.8129 21.2365 52.9293L21.2246 53.06L19.8231 54.3665Z" fill="url(#paint25_linear_497_6951)"/>
<path d="M23.0537 46.2425L23.1487 46.1593L24.954 46.195H31.2133L31.3083 46.2781C31.1539 48.4397 30.4888 50.3876 29.1942 52.0148C28.2559 53.2144 26.9138 54.1171 25.1084 54.9128C25.0015 54.9603 24.9422 54.9841 24.8828 54.9841C24.8115 54.9841 24.7521 54.9485 24.6333 54.8535L23.1843 53.6895C25.2153 53.0125 26.5337 52.193 27.5076 51.0171C28.2678 50.0907 28.7666 49.0811 29.0042 47.9172H24.9778L23.1606 47.9528L23.0537 47.8815V46.2425Z" fill="url(#paint26_linear_497_6951)"/>
<path d="M38.4228 49.9125L38.5059 49.9838C38.5059 50.1857 38.5059 50.3995 38.4941 50.5776C38.8385 50.2332 39.1473 49.8531 39.4442 49.4137H35.7623L34.4202 49.4493L34.337 49.3781V48.0478L34.4202 47.9765L35.7742 48.0122H39.9431L40.9645 47.9647L41.6415 48.8317C41.7009 48.903 41.7365 48.9505 41.7365 48.998C41.7365 49.0455 41.7128 49.093 41.6534 49.1643C41.1308 49.8531 40.4657 50.6845 39.8243 51.3378C39.6461 51.5159 39.563 51.4803 39.4442 51.4091L38.4822 50.7914C38.4347 51.801 38.304 52.3236 38.0308 52.965C37.6745 53.8083 37.2826 54.3071 36.3443 55.0197C36.2493 55.0791 36.1899 55.1148 36.1305 55.1148C36.0711 55.1148 36.0117 55.091 35.9167 55.0435L34.5389 54.3546C35.6079 53.7251 35.9523 53.4163 36.3086 52.8224C36.7125 52.1454 36.8194 51.5041 36.8194 49.9957L36.9025 49.9125H38.4228Z" fill="url(#paint27_linear_497_6951)"/>
<path d="M48.2809 51.2309V49.8769C47.3782 50.5183 46.4399 51.124 45.3947 51.7297C45.1572 51.8604 45.0978 51.8604 44.884 51.6822L43.6131 50.5776C46.4043 49.2236 48.6134 47.7509 50.7751 45.221H50.9176L52.4023 46.2543L52.4142 46.3969C51.654 47.1808 50.9176 47.8578 50.2169 48.4516V51.1953L50.2762 54.9247H48.2215L48.2809 51.2309Z" fill="url(#paint28_linear_497_6951)"/>
<path d="M54.8965 47.8221L54.8846 47.7152L56.0367 46.4206L56.1555 46.3969C56.8681 46.7532 57.8183 47.3827 58.5665 48.0359V48.1547L57.3313 49.5918L57.2244 49.6037C56.5118 48.9148 55.716 48.3329 54.8965 47.8221ZM63.4362 46.8363L64.0894 48.701C64.1251 48.7961 64.137 48.8673 64.137 48.9267C64.137 49.0099 64.1013 49.0574 64.0182 49.1405C61.904 51.4684 59.3267 53.2025 56.1911 54.6278L56.0723 54.604L55.0034 53.0006L55.0271 52.8818C57.9727 51.7535 61.0132 49.6631 63.4362 46.8363Z" fill="url(#paint29_linear_497_6951)"/>
<path d="M72.7479 45.5773L72.7598 45.4704L73.3774 45.031L73.4962 45.0191C73.9357 45.3873 74.3514 45.803 74.7077 46.2781L74.6958 46.3969L74.0425 46.8601H73.9238C73.5556 46.3731 73.223 45.9812 72.7479 45.5773ZM73.8644 44.8291L73.8763 44.7222L74.482 44.2827L74.6008 44.2708C75.0402 44.639 75.4203 45.0191 75.7766 45.4942L75.7647 45.613L75.1471 46.0643H75.0284C74.6602 45.5773 74.3395 45.2329 73.8644 44.8291ZM72.9736 46.4444L73.8644 47.347C73.9475 47.4421 73.995 47.4896 73.995 47.5608C73.995 47.6083 73.9832 47.6677 73.9357 47.7627C73.3774 48.9742 72.7479 50.055 72.0591 50.9934C72.4391 51.314 72.8192 51.6585 73.1874 52.0385V52.1692L72.0353 53.4519L71.9284 53.4638C71.584 53.0837 71.2395 52.7393 70.8832 52.3949C69.8024 53.4995 68.5078 54.414 66.8806 55.2335C66.7737 55.2929 66.7024 55.3167 66.6549 55.3167C66.5718 55.3167 66.5005 55.281 66.3818 55.1979L64.9921 54.2477C66.9043 53.4282 68.4246 52.4067 69.5648 51.2547C69.161 50.9458 68.7216 50.637 68.2346 50.3401V50.2213L69.2442 49.1167L69.3748 49.1049C69.8143 49.3662 70.2418 49.6275 70.6457 49.9006C71.0614 49.3187 71.4296 48.6773 71.7027 48.0359L69.3986 48.0478C68.6265 49.1167 67.807 50.0313 66.9756 50.7914C66.7499 50.9577 66.6906 50.9458 66.4768 50.8033L65.1822 49.9719C66.7618 48.7486 68.1871 47.0264 69.0304 45.1022L69.1491 45.0666L70.7644 45.6486L70.7882 45.7792C70.6575 46.0405 70.515 46.29 70.3725 46.5394L71.9997 46.5156L72.9736 46.4444Z" fill="url(#paint30_linear_497_6951)"/>
<path d="M83.9025 51.1953L82.1209 51.1596H76.8118L75.0421 51.1953L74.959 51.1003V49.4018L75.0658 49.3305L76.7643 49.3662H82.0615L83.8906 49.3305L83.9856 49.4137V51.1003L83.9025 51.1953Z" fill="url(#paint31_linear_497_6951)"/>
<defs>
<linearGradient id="paint0_linear_497_6951" x1="87.2198" y1="22.255" x2="249.177" y2="59.1925" gradientUnits="userSpaceOnUse">
<stop stop-color="white"/>
<stop offset="1" stop-color="white" stop-opacity="0.78"/>
</linearGradient>
<linearGradient id="paint1_linear_497_6951" x1="87.2198" y1="22.255" x2="249.177" y2="59.1925" gradientUnits="userSpaceOnUse">
<stop stop-color="white"/>
<stop offset="1" stop-color="white" stop-opacity="0.78"/>
</linearGradient>
<linearGradient id="paint2_linear_497_6951" x1="87.2198" y1="22.255" x2="249.177" y2="59.1925" gradientUnits="userSpaceOnUse">
<stop stop-color="white"/>
<stop offset="1" stop-color="white" stop-opacity="0.78"/>
</linearGradient>
<linearGradient id="paint3_linear_497_6951" x1="87.2198" y1="22.255" x2="249.177" y2="59.1925" gradientUnits="userSpaceOnUse">
<stop stop-color="white"/>
<stop offset="1" stop-color="white" stop-opacity="0.78"/>
</linearGradient>
<linearGradient id="paint4_linear_497_6951" x1="87.2198" y1="22.255" x2="249.177" y2="59.1925" gradientUnits="userSpaceOnUse">
<stop stop-color="white"/>
<stop offset="1" stop-color="white" stop-opacity="0.78"/>
</linearGradient>
<linearGradient id="paint5_linear_497_6951" x1="87.2198" y1="22.255" x2="249.177" y2="59.1925" gradientUnits="userSpaceOnUse">
<stop stop-color="white"/>
<stop offset="1" stop-color="white" stop-opacity="0.78"/>
</linearGradient>
<linearGradient id="paint6_linear_497_6951" x1="87.2198" y1="22.255" x2="249.177" y2="59.1925" gradientUnits="userSpaceOnUse">
<stop stop-color="white"/>
<stop offset="1" stop-color="white" stop-opacity="0.78"/>
</linearGradient>
<linearGradient id="paint7_linear_497_6951" x1="87.2198" y1="22.255" x2="249.177" y2="59.1925" gradientUnits="userSpaceOnUse">
<stop stop-color="white"/>
<stop offset="1" stop-color="white" stop-opacity="0.78"/>
</linearGradient>
<linearGradient id="paint8_linear_497_6951" x1="87.2198" y1="22.255" x2="249.177" y2="59.1925" gradientUnits="userSpaceOnUse">
<stop stop-color="white"/>
<stop offset="1" stop-color="white" stop-opacity="0.78"/>
</linearGradient>
<linearGradient id="paint9_linear_497_6951" x1="87.2198" y1="22.255" x2="249.177" y2="59.1925" gradientUnits="userSpaceOnUse">
<stop stop-color="white"/>
<stop offset="1" stop-color="white" stop-opacity="0.78"/>
</linearGradient>
<linearGradient id="paint10_linear_497_6951" x1="87.2198" y1="22.255" x2="249.177" y2="59.1925" gradientUnits="userSpaceOnUse">
<stop stop-color="white"/>
<stop offset="1" stop-color="white" stop-opacity="0.78"/>
</linearGradient>
<linearGradient id="paint11_linear_497_6951" x1="87.2198" y1="22.255" x2="249.177" y2="59.1925" gradientUnits="userSpaceOnUse">
<stop stop-color="white"/>
<stop offset="1" stop-color="white" stop-opacity="0.78"/>
</linearGradient>
<linearGradient id="paint12_linear_497_6951" x1="87.2198" y1="22.255" x2="249.177" y2="59.1925" gradientUnits="userSpaceOnUse">
<stop stop-color="white"/>
<stop offset="1" stop-color="white" stop-opacity="0.78"/>
</linearGradient>
<linearGradient id="paint13_linear_497_6951" x1="87.2198" y1="22.255" x2="249.177" y2="59.1925" gradientUnits="userSpaceOnUse">
<stop stop-color="white"/>
<stop offset="1" stop-color="white" stop-opacity="0.78"/>
</linearGradient>
<linearGradient id="paint14_linear_497_6951" x1="87.2198" y1="22.255" x2="249.177" y2="59.1925" gradientUnits="userSpaceOnUse">
<stop stop-color="white"/>
<stop offset="1" stop-color="white" stop-opacity="0.78"/>
</linearGradient>
<linearGradient id="paint15_linear_497_6951" x1="87.2198" y1="22.255" x2="249.177" y2="59.1925" gradientUnits="userSpaceOnUse">
<stop stop-color="white"/>
<stop offset="1" stop-color="white" stop-opacity="0.78"/>
</linearGradient>
<linearGradient id="paint16_linear_497_6951" x1="87.2198" y1="22.255" x2="249.177" y2="59.1925" gradientUnits="userSpaceOnUse">
<stop stop-color="white"/>
<stop offset="1" stop-color="white" stop-opacity="0.78"/>
</linearGradient>
<linearGradient id="paint17_linear_497_6951" x1="87.2198" y1="22.255" x2="249.177" y2="59.1925" gradientUnits="userSpaceOnUse">
<stop stop-color="white"/>
<stop offset="1" stop-color="white" stop-opacity="0.78"/>
</linearGradient>
<linearGradient id="paint18_linear_497_6951" x1="87.2198" y1="22.255" x2="249.177" y2="59.1925" gradientUnits="userSpaceOnUse">
<stop stop-color="white"/>
<stop offset="1" stop-color="white" stop-opacity="0.78"/>
</linearGradient>
<linearGradient id="paint19_linear_497_6951" x1="87.2198" y1="22.255" x2="249.177" y2="59.1925" gradientUnits="userSpaceOnUse">
<stop stop-color="white"/>
<stop offset="1" stop-color="white" stop-opacity="0.78"/>
</linearGradient>
<linearGradient id="paint20_linear_497_6951" x1="87.2198" y1="22.255" x2="249.177" y2="59.1925" gradientUnits="userSpaceOnUse">
<stop stop-color="white"/>
<stop offset="1" stop-color="white" stop-opacity="0.78"/>
</linearGradient>
<linearGradient id="paint21_linear_497_6951" x1="87.2198" y1="22.255" x2="249.177" y2="59.1925" gradientUnits="userSpaceOnUse">
<stop stop-color="white"/>
<stop offset="1" stop-color="white" stop-opacity="0.78"/>
</linearGradient>
<linearGradient id="paint22_linear_497_6951" x1="87.2198" y1="22.255" x2="249.177" y2="59.1925" gradientUnits="userSpaceOnUse">
<stop stop-color="white"/>
<stop offset="1" stop-color="white" stop-opacity="0.78"/>
</linearGradient>
<linearGradient id="paint23_linear_497_6951" x1="87.2198" y1="22.255" x2="249.177" y2="59.1925" gradientUnits="userSpaceOnUse">
<stop stop-color="white"/>
<stop offset="1" stop-color="white" stop-opacity="0.78"/>
</linearGradient>
<linearGradient id="paint24_linear_497_6951" x1="87.2198" y1="22.255" x2="249.177" y2="59.1925" gradientUnits="userSpaceOnUse">
<stop stop-color="white"/>
<stop offset="1" stop-color="white" stop-opacity="0.78"/>
</linearGradient>
<linearGradient id="paint25_linear_497_6951" x1="87.2198" y1="22.255" x2="249.177" y2="59.1925" gradientUnits="userSpaceOnUse">
<stop stop-color="white"/>
<stop offset="1" stop-color="white" stop-opacity="0.78"/>
</linearGradient>
<linearGradient id="paint26_linear_497_6951" x1="87.2198" y1="22.255" x2="249.177" y2="59.1925" gradientUnits="userSpaceOnUse">
<stop stop-color="white"/>
<stop offset="1" stop-color="white" stop-opacity="0.78"/>
</linearGradient>
<linearGradient id="paint27_linear_497_6951" x1="87.2198" y1="22.255" x2="249.177" y2="59.1925" gradientUnits="userSpaceOnUse">
<stop stop-color="white"/>
<stop offset="1" stop-color="white" stop-opacity="0.78"/>
</linearGradient>
<linearGradient id="paint28_linear_497_6951" x1="87.2198" y1="22.255" x2="249.177" y2="59.1925" gradientUnits="userSpaceOnUse">
<stop stop-color="white"/>
<stop offset="1" stop-color="white" stop-opacity="0.78"/>
</linearGradient>
<linearGradient id="paint29_linear_497_6951" x1="87.2198" y1="22.255" x2="249.177" y2="59.1925" gradientUnits="userSpaceOnUse">
<stop stop-color="white"/>
<stop offset="1" stop-color="white" stop-opacity="0.78"/>
</linearGradient>
<linearGradient id="paint30_linear_497_6951" x1="87.2198" y1="22.255" x2="249.177" y2="59.1925" gradientUnits="userSpaceOnUse">
<stop stop-color="white"/>
<stop offset="1" stop-color="white" stop-opacity="0.78"/>
</linearGradient>
<linearGradient id="paint31_linear_497_6951" x1="87.2198" y1="22.255" x2="249.177" y2="59.1925" gradientUnits="userSpaceOnUse">
<stop stop-color="white"/>
<stop offset="1" stop-color="white" stop-opacity="0.78"/>
</linearGradient>
<linearGradient id="paint32_linear_497_6951" x1="87.2198" y1="22.255" x2="249.177" y2="59.1925" gradientUnits="userSpaceOnUse">
<stop stop-color="white"/>
<stop offset="1" stop-color="white" stop-opacity="0.78"/>
</linearGradient>
<linearGradient id="paint33_linear_497_6951" x1="87.2198" y1="22.255" x2="249.177" y2="59.1925" gradientUnits="userSpaceOnUse">
<stop stop-color="white"/>
<stop offset="1" stop-color="white" stop-opacity="0.78"/>
</linearGradient>
</defs>
</svg>
