<svg width="606" height="255" viewBox="0 0 606 255" fill="none" xmlns="http://www.w3.org/2000/svg">
<path d="M537.677 1.86823C539.502 1.61485 540.762 1.8354 542.55 2.54128C544.313 3.23737 545.781 4.25272 546.789 5.26721C548.485 6.97364 549.176 8.09057 549.176 10.4278C549.176 12.8572 548.612 15.6969 547.686 20.4383C546.589 26.0538 545.891 28.9701 547.869 31.3492C553.28 37.8541 557.692 42.4457 561.891 51.3186C569.612 67.6343 587.467 111.5 594.05 129.685C602.714 159.18 609.344 179.72 582.189 186.39C558.647 192.172 450.876 205.147 395.204 212.159C318.818 221.781 213.379 234.68 162.862 240.644C136.203 243.372 102.562 242.039 76.3035 235.128C76.2929 236.735 75.8598 238.313 75.048 239.699C74.236 241.086 73.0718 242.235 71.6757 243.031C70.2796 243.826 68.699 244.241 67.0922 244.233C65.4851 244.225 63.9075 243.795 62.5194 242.985C60.1142 240.875 58.0301 238.424 56.3358 235.711L50.3725 227.599L50.0813 227.236H49.6071L35.7874 225.709C33.6624 225.857 31.5481 225.297 29.7726 224.12C27.9975 222.943 26.6586 221.213 25.967 219.199C25.3155 217.157 25.3945 214.949 26.1907 212.959C26.987 210.969 28.4521 209.318 30.332 208.288L41.4968 200.032L42.1521 199.523L41.8609 198.794C26.5852 162.098 -14.001 113.325 33.0242 83.0301C35.7538 81.1741 46.2626 74.7383 48.8808 72.9201L90.0149 46.9145V64.0817L91.3965 63.1725L95.0335 60.736L153.225 22.3793V67.502H154.134C221.272 60.41 379.915 44.3342 444.871 37.0603C459.564 35.1327 476.076 23.7845 489.133 16.947L494.48 14.0382C499.862 10.6563 506.465 12.7947 511.83 13.9387C513.448 14.2839 514.76 14.7094 516.522 14.7094C519.049 14.7089 521.834 12.2765 523.282 11.1293C524.731 9.9817 530.785 5.13144 532.556 3.8927C534.326 2.65454 535.872 2.11893 537.677 1.86823Z" fill="black"/>
<path d="M538.724 0.577645C540.925 0.65822 542.891 1.12768 545.135 2.45827C547.246 3.70982 548.385 5.14487 549.175 6.23374C550.794 8.46349 550.629 10.4727 550.201 13.2714C549.62 15.9991 548.893 20.5449 548.348 23.5998C548.093 25.0242 547.804 27.0124 547.868 28.0998C547.931 29.1678 548.477 30.3236 549.333 31.3496C555.379 38.5917 560.481 44.9843 563.606 51.7577C566.73 58.5313 589.153 108.48 596.18 128.819C606.476 158.617 618.361 186.48 573.259 193.679C528.156 200.877 450.932 211.979 396.732 219.469C328.339 228.921 236.6 241.352 162.861 250.279C120.709 255.381 97.1392 251.041 82.3174 247.578C80.4977 249.785 78.2236 251.581 75.642 252.836C72.6783 254.276 69.4034 254.961 66.111 254.828C62.8187 254.696 59.61 253.751 56.7718 252.078C53.0597 249.39 49.9192 245.989 47.5338 242.076L44.0282 237.324L34.4777 236.219C32.9494 236.103 31.4305 235.885 29.9315 235.566C26.3037 234.718 22.989 232.863 20.3685 230.215C17.7482 227.567 15.9285 224.233 15.1191 220.597C14.3098 216.961 14.5439 213.169 15.7939 209.66C17.044 206.15 19.2595 203.065 22.1852 200.759L23.13 200.033L23.8208 199.523L28.9441 195.79C23.2536 183.265 15.5538 170.768 9.92829 157.879C-6.07402 123.038 -2.91024 91.3967 32.9132 71.6118C47.7153 62.3741 83.3206 40.6253 98.1598 31.6054V48.9892L150.642 15.6387L160.279 9.49243C160.279 15.2592 159.572 46.7002 159.313 60.9211C205.26 56.9492 365.855 43.312 396.098 40.2253L420.358 37.97C441.461 35.8633 453.09 36.1153 467.056 27.4232L488.441 15.747L493.788 12.8381C501.062 8.40161 509.041 13.4357 516.391 13.5112C518.327 13.5311 520.254 12.0335 522.591 10.1939C524.927 8.35414 530.071 4.14986 532.375 2.65539C534.679 1.16112 536.462 0.494892 538.724 0.577645ZM542.549 2.54174C540.761 1.83578 539.501 1.61525 537.676 1.86869C535.871 2.11941 534.325 2.65478 532.555 3.89316C530.784 5.13203 524.729 9.98283 523.281 11.1298C521.833 12.2769 519.048 14.7095 516.521 14.7099C514.759 14.7099 513.447 14.2843 511.829 13.9392C506.464 12.7951 499.861 10.6564 494.479 14.0386L489.132 16.9475C476.075 23.7849 459.563 35.1332 444.87 37.0608C379.914 44.3347 221.271 60.4104 154.133 67.5025H153.224V22.3798L95.0325 60.7365L91.3956 63.1729L90.014 64.0822V46.915L48.8799 72.9206C46.2615 74.7389 35.7522 81.175 33.0233 83.0305C-14.0022 113.326 26.5845 162.098 41.8599 198.795L42.1512 199.523L41.4959 200.033L30.3311 208.289C28.4509 209.318 26.986 210.969 26.1898 212.959C25.3935 214.95 25.3143 217.157 25.966 219.199C26.6577 221.214 27.9964 222.943 29.7717 224.12C31.5471 225.297 33.6614 225.857 35.7865 225.71L49.6062 227.237H50.0803L50.3716 227.599L56.3349 235.711C58.0293 238.425 60.1131 240.876 62.5184 242.985C63.9065 243.795 65.4841 244.225 67.0912 244.234C68.6981 244.242 70.2786 243.827 71.6747 243.031C73.071 242.236 74.235 241.087 75.0471 239.7C75.8591 238.313 76.292 236.736 76.3026 235.129C102.561 242.039 136.202 243.372 162.861 240.645C213.378 234.68 318.817 221.782 395.203 212.16C450.875 205.147 558.646 192.172 582.188 186.391C609.343 179.721 602.713 159.181 594.049 129.686C587.466 111.501 569.612 67.6349 561.89 51.3191C557.691 42.4458 553.279 37.8548 547.868 31.3496C545.889 28.9705 546.588 26.0545 547.685 20.4388C548.612 15.6969 549.175 12.8578 549.175 10.4283C549.175 8.09049 548.484 6.97429 546.788 5.26767C545.78 4.25307 544.312 3.2379 542.549 2.54174Z" fill="url(#paint0_linear_3004_1754)"/>
<path d="M499.135 22.7713C499.025 22.6451 498.957 22.4877 498.942 22.3211C498.926 22.1546 498.963 21.9873 499.047 21.8428C499.131 21.6983 499.259 21.5838 499.411 21.5155C499.564 21.4472 499.734 21.4286 499.898 21.4621L520.956 24.6262C521.072 24.6434 521.19 24.636 521.303 24.6047C521.416 24.5733 521.521 24.5187 521.611 24.4443L538.232 11.1694C538.363 11.0672 538.52 11.006 538.686 10.9937C538.851 10.9815 539.017 11.0187 539.161 11.1005C539.305 11.1824 539.421 11.3052 539.495 11.4535C539.57 11.6017 539.598 11.7687 539.578 11.9332L536.414 32.9911C536.369 33.0947 536.347 33.206 536.347 33.3184C536.347 33.4309 536.369 33.5422 536.414 33.6458L549.725 50.2666C549.831 50.3995 549.894 50.5616 549.906 50.7313C549.917 50.9009 549.877 51.0701 549.79 51.2163C549.703 51.3625 549.574 51.4787 549.419 51.5495C549.264 51.6202 549.092 51.6421 548.924 51.6123L527.867 48.4482C527.769 48.4051 527.664 48.3828 527.557 48.3828C527.451 48.3828 527.346 48.4051 527.248 48.4482L510.591 61.7594C510.463 61.8751 510.301 61.9462 510.129 61.9622C509.957 61.9782 509.785 61.9383 509.638 61.8483C509.49 61.7583 509.376 61.6231 509.312 61.4628C509.248 61.3026 509.238 61.126 509.282 60.9593L512.446 39.9013C512.489 39.804 512.511 39.6987 512.511 39.5922C512.511 39.4857 512.489 39.3805 512.446 39.2831L499.135 22.7713ZM500.917 49.8666C500.933 49.7514 500.918 49.634 500.874 49.5264C500.829 49.4189 500.757 49.3251 500.665 49.2547C500.572 49.1844 500.462 49.14 500.347 49.1261C500.231 49.1122 500.114 49.1292 500.008 49.1756L460.328 67.0693C460.191 67.1379 460.082 67.2528 460.021 67.3936C459.959 67.5345 459.949 67.6925 459.993 67.8399C460.036 67.9874 460.13 68.1148 460.258 68.2C460.386 68.2852 460.539 68.3227 460.692 68.3059L498.48 62.996C498.624 62.9818 498.758 62.9207 498.864 62.822C498.969 62.7234 499.039 62.5928 499.062 62.4504L500.917 49.8666ZM143.441 42.8836L110.709 63.7597V134.498C110.709 144.973 103.18 150.064 94.4151 150.064C90.1151 150.204 85.932 148.652 82.7633 145.741C79.5947 142.831 77.693 138.795 77.4668 134.498V67.9423L47.6076 86.8543L47.9348 103.73L48.4077 129.407C48.3426 135.624 49.466 141.796 51.7174 147.591C52.2423 148.937 52.8496 150.249 53.5359 151.519C55.4998 155.294 58.0534 158.732 61.1006 161.703C62.8973 163.419 64.8586 164.954 66.956 166.285C69.7987 168.119 72.8363 169.631 76.0124 170.795C80.6891 172.515 85.5882 173.556 90.5602 173.886H93.1787H95.9064C102.52 174.049 109.11 173.027 115.364 170.868C120.996 168.877 126.176 165.786 130.603 161.775C132.748 159.723 134.663 157.443 136.313 154.974C137.847 152.69 139.138 150.252 140.168 147.701C142.494 141.923 143.656 135.743 143.587 129.516L143.441 42.8836ZM397.555 81.1807L501.353 42.92C501.45 42.8846 501.538 42.8267 501.608 42.7511C501.678 42.6755 501.73 42.5843 501.758 42.485C501.787 42.3856 501.791 42.281 501.771 42.1796C501.751 42.0783 501.708 41.983 501.644 41.9017L490.406 28.2631C490.286 28.1717 490.139 28.1222 489.988 28.1222C489.837 28.1222 489.69 28.1717 489.57 28.2631L397.009 79.9442C396.928 79.98 396.855 80.0315 396.793 80.0957C396.732 80.1598 396.684 80.2353 396.652 80.3181C396.62 80.4008 396.604 80.4891 396.606 80.5778C396.608 80.6665 396.628 80.754 396.664 80.8352C396.699 80.9164 396.751 80.9898 396.815 81.0511C396.879 81.1124 396.955 81.1604 397.038 81.1925C397.121 81.2245 397.209 81.2401 397.298 81.2381C397.386 81.2361 397.473 81.2165 397.555 81.1807ZM86.2684 201.6L66.4836 199.382C66.3764 199.379 66.2711 199.351 66.1764 199.3C66.0817 199.25 66.0001 199.178 65.938 199.091L54.1179 183.052C54.0258 182.924 53.8962 182.827 53.7472 182.776C53.5983 182.725 53.4373 182.721 53.2859 182.764C53.1346 182.808 53.0004 182.898 52.9019 183.021C52.8034 183.144 52.7454 183.294 52.7359 183.452L50.5174 203.2C50.5119 203.307 50.4829 203.411 50.4326 203.506C50.3823 203.6 50.3117 203.682 50.2261 203.746L34.1875 215.566C34.0611 215.656 33.9647 215.782 33.9118 215.928C33.859 216.074 33.8519 216.233 33.8914 216.383C33.9309 216.533 34.0151 216.667 34.1329 216.768C34.2508 216.869 34.3968 216.932 34.5511 216.948L54.3359 219.167C54.5525 219.203 54.7474 219.32 54.8815 219.494L66.7016 235.496C66.7916 235.623 66.918 235.719 67.0639 235.772C67.2098 235.825 67.3684 235.832 67.5185 235.792C67.6686 235.753 67.8029 235.669 67.9039 235.551C68.0049 235.433 68.0676 235.287 68.0837 235.133L70.3022 215.348C70.3403 215.14 70.4418 214.949 70.593 214.802L86.632 203.018C86.754 202.923 86.8455 202.793 86.8953 202.646C86.9451 202.499 86.9512 202.341 86.9126 202.191C86.8741 202.04 86.7926 201.905 86.6782 201.8C86.5638 201.695 86.4215 201.625 86.2684 201.6ZM106.49 219.785H106.272L101.362 213.129C101.334 213.076 101.292 213.031 101.241 213C101.19 212.968 101.131 212.952 101.071 212.952C101.01 212.952 100.952 212.968 100.901 213C100.849 213.031 100.807 213.076 100.78 213.129L99.8706 221.349C99.8897 221.382 99.8999 221.42 99.8999 221.458C99.8999 221.496 99.8897 221.534 99.8706 221.567L93.1787 226.477C93.1273 226.518 93.0896 226.574 93.0704 226.637C93.0512 226.7 93.0512 226.767 93.0708 226.83C93.0905 226.893 93.1288 226.948 93.1805 226.989C93.2321 227.03 93.2946 227.054 93.3603 227.059L101.58 228.004H101.798L106.708 234.66C106.736 234.713 106.777 234.758 106.829 234.789C106.88 234.821 106.939 234.837 106.999 234.837C107.059 234.837 107.118 234.821 107.169 234.789C107.221 234.758 107.263 234.713 107.29 234.66L108.199 226.44C108.183 226.406 108.174 226.369 108.174 226.331C108.174 226.294 108.183 226.256 108.199 226.222L114.855 221.312C114.908 221.285 114.953 221.243 114.984 221.192C115.016 221.14 115.032 221.081 115.032 221.021C115.032 220.961 115.016 220.902 114.984 220.851C114.953 220.8 114.908 220.758 114.855 220.73L106.49 219.785ZM502.663 133.735C502.565 141.221 500.351 148.526 496.277 154.807C492.204 161.088 486.436 166.089 479.641 169.231C473.17 172.692 465.874 174.315 458.546 173.924C451.218 173.533 444.136 171.143 438.07 167.013C432.752 163.793 428.273 159.359 424.999 154.073C421.725 148.788 419.75 142.803 419.236 136.607C418.721 130.412 419.682 124.182 422.039 118.43C424.396 112.677 428.083 107.565 432.797 103.512C439.705 97.2685 448.504 93.5183 457.792 92.8592C467.08 92.2 476.321 94.6698 484.041 99.8747C489.751 103.494 494.449 108.502 497.699 114.429C500.949 120.357 502.644 127.011 502.626 133.771L502.663 133.735ZM479.168 131.843C479.168 126.992 477.241 122.338 473.81 118.908C470.379 115.477 465.726 113.55 460.874 113.55C456.022 113.55 451.369 115.477 447.938 118.908C444.508 122.338 442.58 126.992 442.58 131.843C442.468 134.322 442.864 136.797 443.744 139.117C444.627 141.42 445.962 143.523 447.672 145.3C449.374 147.087 451.431 148.499 453.709 149.446C455.97 150.429 458.409 150.937 460.874 150.937C463.339 150.937 465.778 150.429 468.039 149.446C470.318 148.499 472.374 147.087 474.076 145.3C475.786 143.523 477.121 141.42 478.004 139.117C478.884 136.797 479.28 134.322 479.168 131.843ZM236.038 121.696C237.511 129.251 237.511 137.018 236.038 144.573C235.148 151.018 232.281 157.029 227.832 161.778C223.383 166.526 217.571 169.778 211.197 171.086C197.959 173.996 186.575 170.868 179.047 157.884V216.693L155.152 219.639V87.218L179.193 97.9107V109.585C186.467 95.9831 196.54 91.4005 209.743 94.2373C224.472 97.4378 233.165 107.476 236.002 121.733L236.038 121.696ZM217.381 131.843C217.136 129.304 216.36 126.844 215.103 124.624C213.846 122.404 212.135 120.473 210.083 118.958C208.031 117.442 205.683 116.375 203.191 115.826C200.7 115.277 198.121 115.258 195.621 115.772C193.122 116.285 190.759 117.318 188.685 118.804C186.612 120.291 184.874 122.197 183.585 124.399C182.296 126.6 181.485 129.049 181.205 131.585C180.924 134.12 181.181 136.687 181.957 139.117C182.839 141.42 184.175 143.523 185.884 145.3C187.58 147.078 189.623 148.489 191.886 149.446C194.151 150.432 196.593 150.945 199.064 150.955C201.534 150.966 203.981 150.472 206.254 149.506C208.527 148.539 210.58 147.12 212.287 145.334C213.993 143.547 215.318 141.432 216.18 139.117C217.091 136.805 217.501 134.326 217.381 131.843ZM547.579 116.423H571.001L563.727 94.892H548.161C548.161 89.582 548.161 70.1608 548.524 65.2873L523.248 80.8534L522.884 93.2554L503.535 95.3648L510.809 116.459H523.211C523.211 116.459 523.211 146.164 523.211 150.828C523.211 155.492 523.414 159.345 526.334 163.421C528.282 166.14 530.199 167.435 532.74 168.795C535.312 170.126 538.173 170.801 541.069 170.759C549.398 171.122 554.38 171.122 562.891 171.122C562.891 171.122 568.637 171.122 568.782 171.122L561.763 150.828H552.95C550.015 150.828 547.761 150.075 547.761 146.609C547.761 140.544 547.579 125.903 547.579 116.423ZM408.138 119.405C407.115 114.172 404.803 109.277 401.412 105.162C398.021 101.047 393.658 97.8423 388.717 95.8376C385.242 94.3205 381.487 93.5527 377.696 93.584C373.904 93.6154 370.162 94.4452 366.713 96.0195C364.04 97.6256 361.593 99.5826 359.44 101.839C357.177 104.113 355.319 106.758 353.948 109.658V55.6857L329.871 70.8882C329.871 106.53 329.871 135.735 329.871 171.195H354.13V133.735C353.987 129.811 354.958 125.928 356.93 122.533C358.407 119.817 360.658 117.602 363.398 116.171C366.138 114.739 369.242 114.156 372.314 114.495C375.408 114.787 378.326 116.061 380.643 118.132C382.978 120.182 384.575 122.942 385.189 125.988C385.91 128.766 386.252 131.629 386.207 134.498V171.304H409.957V169.74C409.957 157.629 410.248 146.246 409.957 134.098C409.838 129.162 409.216 124.251 408.102 119.441L408.138 119.405ZM308.122 129.588C302.449 127.479 296.447 125.952 290.628 124.388C284.809 122.824 279.717 121.442 274.262 119.841C272.589 119.369 270.625 118.423 270.625 115.914C270.625 112.277 275.135 110.567 275.79 110.385C279.659 109.077 283.85 109.077 287.719 110.385C289.891 110.992 291.882 112.121 293.518 113.675C295.154 115.228 296.384 117.158 297.102 119.296C297.102 119.296 311.214 114.459 317.978 112.022C316.91 108.11 314.827 104.55 311.94 101.701C309.053 98.8529 305.465 96.8175 301.539 95.8012C292.045 92.8893 282.034 92.0583 272.189 93.3645C266.576 93.8081 261.127 95.4712 256.223 98.238C253.759 99.789 251.631 101.817 249.963 104.203C248.296 106.589 247.123 109.285 246.513 112.131C245.935 114.988 245.935 117.931 246.513 120.787C247.174 124.739 248.981 128.41 251.71 131.345C254.438 134.28 257.967 136.35 261.86 137.299C270.153 139.517 276.917 141.118 284.846 143.373C287.573 144.136 290.592 145.191 293.429 146.282C294.289 146.616 295.029 147.2 295.554 147.958C296.079 148.717 296.365 149.615 296.375 150.537C296.331 151.492 295.987 152.408 295.393 153.156C294.032 154.688 292.127 155.628 290.083 155.775C286.336 156.175 282.556 156.175 278.808 155.775C273.062 155.156 269.68 153.483 270.48 147.737L245.748 137.299C244.246 144.629 245.02 152.243 247.967 159.12C250.199 162.794 253.428 165.757 257.278 167.667C264.537 171.426 272.598 173.373 280.772 173.341C290.219 174.164 299.724 172.653 308.449 168.94C312.321 167.312 315.594 164.526 317.821 160.964C320.048 157.403 321.119 153.24 320.888 149.046C321.177 144.854 320.086 140.682 317.781 137.168C315.475 133.655 312.083 130.993 308.122 129.588Z" fill="url(#paint1_linear_3004_1754)"/>
<defs>
<linearGradient id="paint0_linear_3004_1754" x1="57.6124" y1="435.55" x2="529.662" y2="-124.74" gradientUnits="userSpaceOnUse">
<stop offset="0.18" stop-color="#70FFC2"/>
<stop offset="0.37" stop-color="#89FDFC"/>
<stop offset="0.59" stop-color="#96E3FF"/>
<stop offset="0.91" stop-color="#D78FFF"/>
</linearGradient>
<linearGradient id="paint1_linear_3004_1754" x1="84.3772" y1="395.595" x2="501.463" y2="-101.503" gradientUnits="userSpaceOnUse">
<stop offset="0.18" stop-color="#70FFC2"/>
<stop offset="0.37" stop-color="#89FDFC"/>
<stop offset="0.59" stop-color="#96E3FF"/>
<stop offset="0.91" stop-color="#D78FFF"/>
</linearGradient>
</defs>
</svg>
